<?xml version="1.0" standalone="no"?>
<!DOCTYPE svg PUBLIC "-//W3C//DTD SVG 20010904//EN"
 "http://www.w3.org/TR/2001/REC-SVG-20010904/DTD/svg10.dtd">
<svg version="1.0" xmlns="http://www.w3.org/2000/svg"
 width="1584.000000pt" height="1584.000000pt" viewBox="0 0 1584.000000 1584.000000"
 preserveAspectRatio="xMidYMid meet">
<metadata>
Created by potrace 1.14, written by Peter Selinger 2001-2017
</metadata>
<g transform="translate(0.000000,1584.000000) scale(0.100000,-0.100000)"
fill="#000000" stroke="none">
<path d="M9647 10263 c-1 -1 -70 -4 -152 -7 -83 -3 -166 -8 -185 -10 -19 -3
-66 -7 -105 -11 -100 -9 -125 -12 -165 -20 -19 -4 -44 -8 -55 -9 -11 -2 -33
-6 -50 -9 -16 -4 -43 -9 -60 -12 -16 -3 -41 -7 -55 -10 -14 -3 -61 -12 -105
-21 -71 -14 -118 -25 -165 -40 -12 -4 -12 -6 0 -14 13 -8 113 -7 570 4 183 5
215 -1 204 -36 -3 -13 -11 -24 -15 -26 -5 -2 -9 -9 -9 -15 0 -7 -14 -23 -30
-37 -72 -60 -73 -60 -66 -98 7 -44 21 -54 65 -47 53 10 99 45 190 144 45 50
91 96 102 101 44 24 115 12 298 -50 80 -28 151 -52 156 -53 6 -2 27 -11 49
-20 21 -9 40 -17 43 -17 10 0 207 -86 288 -126 106 -53 192 -115 379 -274 89
-76 254 -242 259 -261 5 -19 1 -20 -41 -18 -26 1 -53 7 -59 12 -7 5 -13 7 -13
4 0 -9 -133 36 -215 72 -11 5 -56 21 -100 36 -44 15 -87 30 -95 33 -8 3 -19 6
-25 8 -5 1 -73 21 -150 44 -77 23 -162 48 -190 55 -27 8 -108 30 -180 50 -71
20 -138 38 -148 40 -10 2 -52 14 -95 25 -42 12 -84 23 -92 25 -8 2 -89 22
-180 45 -199 50 -228 57 -260 64 -14 2 -61 14 -105 25 -44 11 -91 22 -105 25
-14 3 -34 7 -45 10 -178 41 -245 56 -290 62 -16 2 -37 7 -47 10 -9 2 -27 7
-40 9 -13 3 -48 10 -78 16 -30 5 -66 12 -80 14 -26 4 -67 11 -110 20 -13 2
-42 7 -65 10 -22 3 -47 8 -55 10 -8 2 -33 6 -55 10 -22 3 -67 10 -100 16 -33
6 -73 11 -90 13 -16 2 -46 6 -65 9 -50 9 -99 17 -145 22 -22 3 -53 7 -70 9
-16 2 -55 7 -85 11 -30 4 -66 9 -80 11 -14 3 -47 7 -75 10 -27 2 -63 6 -80 9
-43 6 -143 16 -195 20 -25 2 -45 4 -45 5 0 11 -353 17 -380 6 -48 -18 58 -62
195 -81 19 -3 46 -7 60 -9 14 -3 47 -7 74 -11 27 -3 52 -8 55 -9 3 -2 26 -7
51 -10 25 -3 56 -8 70 -11 14 -3 39 -8 55 -10 17 -2 68 -11 115 -20 47 -9 99
-19 115 -21 17 -3 48 -10 70 -15 22 -5 58 -12 80 -15 21 -3 42 -7 46 -10 4 -2
24 -6 45 -10 38 -6 95 -18 334 -70 117 -26 269 -60 305 -69 11 -3 56 -14 100
-24 44 -11 91 -22 105 -25 14 -3 50 -12 82 -20 31 -8 67 -17 80 -20 74 -16
503 -126 568 -146 19 -6 46 -13 60 -16 14 -2 48 -11 75 -20 28 -8 57 -16 65
-18 8 -2 22 -6 30 -9 8 -3 40 -13 70 -21 118 -31 383 -109 420 -123 8 -4 17
-7 20 -8 3 -1 12 -4 20 -7 8 -3 35 -11 60 -19 25 -7 51 -17 59 -23 8 -6 17
-10 20 -9 13 6 209 -66 306 -112 70 -33 121 -54 185 -75 108 -35 239 -90 565
-236 246 -109 321 -144 565 -262 159 -76 389 -186 425 -202 69 -30 141 -50
165 -45 27 6 27 7 18 46 -6 21 -14 39 -18 39 -4 0 -11 10 -17 23 -15 33 -148
194 -207 250 -86 82 -293 217 -332 217 -8 0 -14 3 -14 8 0 4 -15 14 -32 21
-49 22 -173 94 -176 103 -2 4 -8 8 -13 8 -18 0 -268 176 -299 210 -3 3 -34 30
-70 60 -36 30 -72 63 -81 72 -9 10 -19 15 -23 11 -3 -3 -6 -2 -6 4 0 6 -48 50
-107 99 -60 49 -109 92 -111 96 -2 5 -10 8 -18 8 -8 0 -14 3 -14 8 0 4 -28 30
-63 57 -34 28 -71 59 -83 70 -11 11 -42 38 -68 60 -78 66 -102 137 -67 202 9
19 41 44 61 49 40 9 94 38 93 49 0 9 -63 49 -63 40 0 -2 -12 0 -27 6 -33 13
-46 16 -158 39 -114 23 -184 34 -295 46 -30 3 -71 7 -90 9 -51 5 -490 22 -493
18z"/>
<path d="M6357 9995 c-1 -2 -23 -5 -49 -8 -120 -14 -174 -43 -383 -205 -133
-103 -199 -162 -191 -170 7 -7 58 -13 146 -17 52 -2 113 -6 135 -9 22 -2 69
-7 105 -11 36 -3 76 -8 90 -10 60 -9 108 -16 145 -20 22 -2 51 -7 65 -9 13 -3
42 -8 65 -11 22 -3 65 -10 95 -16 30 -5 73 -12 95 -15 22 -3 71 -12 109 -20
38 -8 71 -13 74 -10 2 3 12 1 21 -3 9 -5 34 -11 56 -15 22 -3 51 -8 65 -11 14
-3 59 -12 100 -19 99 -19 132 -26 150 -31 8 -3 33 -7 55 -11 22 -3 44 -8 48
-11 4 -2 22 -6 40 -9 56 -7 442 -93 762 -171 11 -2 36 -7 55 -10 19 -3 42 -9
50 -13 8 -4 32 -11 54 -14 21 -4 41 -8 45 -11 4 -2 18 -6 32 -9 13 -2 62 -14
109 -26 47 -11 92 -23 100 -25 8 -2 71 -18 139 -35 69 -18 129 -33 135 -35 6
-1 18 -5 26 -8 15 -5 62 -18 92 -23 9 -2 38 -13 65 -24 l48 -20 -55 6 c-80 10
-138 19 -180 29 -14 3 -42 8 -63 11 -48 7 -72 12 -72 14 0 2 -24 7 -72 14 -21
3 -49 8 -63 11 -14 3 -50 9 -80 15 -30 6 -66 12 -80 15 -14 3 -63 12 -110 20
-47 8 -96 16 -110 19 -14 3 -41 7 -61 10 -20 3 -42 7 -50 10 -8 3 -34 8 -59
11 -25 4 -54 8 -65 10 -11 2 -101 17 -200 34 -239 40 -236 39 -265 45 -14 2
-59 10 -100 16 -41 6 -88 14 -105 17 -16 3 -43 6 -60 8 -16 2 -41 6 -55 9 -28
7 -91 16 -189 30 -23 3 -55 8 -70 10 -14 3 -46 7 -71 11 -25 4 -58 9 -75 11
-40 6 -71 11 -125 19 -25 4 -57 8 -71 11 -15 2 -47 6 -70 9 -24 3 -56 8 -70
10 -14 3 -42 7 -62 9 -20 3 -52 8 -69 11 -18 3 -51 7 -73 10 -22 2 -56 7 -75
10 -19 2 -54 7 -77 10 -23 3 -57 7 -75 9 -18 3 -55 8 -83 12 -27 3 -59 8 -70
9 -11 2 -45 6 -75 10 -30 3 -66 8 -80 10 -14 2 -47 6 -75 10 -27 3 -59 7 -70
9 -11 2 -49 7 -85 11 -36 3 -76 8 -90 10 -14 2 -50 6 -80 9 -30 4 -66 9 -80
11 -14 2 -52 6 -85 10 -89 9 -147 15 -175 20 -14 3 -54 7 -90 11 -36 3 -76 7
-90 9 -14 3 -56 7 -95 10 -38 4 -86 9 -105 12 -19 3 -55 7 -80 9 -53 4 -130
12 -180 19 -19 2 -69 7 -110 10 -41 3 -86 8 -100 10 -14 3 -52 7 -85 10 -95 8
-197 16 -230 20 -16 2 -64 6 -105 10 -41 3 -93 8 -115 11 -22 2 -76 6 -120 9
-44 3 -100 8 -125 11 -25 3 -70 7 -100 9 -30 1 -91 6 -135 10 -312 25 -357 28
-540 40 -60 4 -132 8 -160 10 -27 2 -94 6 -147 9 -54 3 -121 8 -150 10 -29 3
-109 8 -178 11 -69 3 -161 8 -205 10 -457 25 -1107 48 -1310 47 -197 -1 -197
-1 5 -155 52 -39 97 -74 100 -77 3 -3 50 -39 105 -80 55 -41 102 -77 105 -80
3 -3 97 -75 210 -160 113 -85 207 -158 208 -162 2 -4 8 -8 13 -8 10 0 142
-101 147 -112 2 -5 10 -8 17 -8 7 0 15 -3 17 -8 2 -4 66 -54 143 -112 77 -58
146 -110 155 -117 39 -30 228 -174 300 -228 45 -33 88 -66 96 -73 8 -8 36 -30
63 -50 53 -41 126 -100 146 -119 8 -7 18 -13 23 -13 6 0 12 -3 14 -7 3 -9 166
-133 173 -133 5 0 37 -26 60 -47 8 -7 18 -13 23 -13 6 0 12 -3 14 -8 2 -4 62
-50 133 -102 138 -100 159 -108 243 -90 20 5 55 11 77 13 22 3 47 8 55 11 8 3
26 8 40 11 14 2 52 12 85 20 33 9 71 18 85 21 14 3 48 12 76 20 28 8 60 16 70
18 11 2 82 20 159 40 77 20 163 40 190 46 88 18 100 21 118 26 10 3 30 7 45 9
15 3 38 7 52 10 51 10 126 25 150 30 40 8 251 43 295 50 23 3 50 7 60 9 36 7
130 20 155 22 14 1 25 3 25 4 0 1 14 3 30 5 17 1 46 5 65 8 19 3 58 9 85 12
28 3 68 8 90 10 22 3 60 7 85 10 25 2 56 6 70 9 14 2 63 7 110 11 47 3 92 8
100 10 8 2 53 6 100 10 47 3 108 8 135 10 78 8 402 29 610 40 510 27 1187 24
1860 -9 61 -3 160 -8 220 -11 61 -3 144 -7 185 -10 41 -3 116 -7 165 -10 50
-3 119 -7 155 -10 36 -2 101 -7 145 -9 84 -5 225 -15 310 -21 28 -2 86 -7 130
-10 44 -3 107 -7 140 -10 33 -3 96 -8 140 -11 44 -2 100 -7 125 -10 25 -2 79
-7 120 -10 41 -2 93 -6 115 -8 125 -11 196 -17 245 -21 30 -3 78 -7 105 -9 28
-3 84 -8 125 -11 41 -3 93 -8 115 -10 22 -3 69 -7 105 -10 36 -3 85 -7 110 -9
25 -3 81 -7 125 -10 44 -3 107 -8 140 -11 115 -10 300 -20 512 -29 68 -2 126
-6 130 -9 13 -6 586 0 617 7 119 28 91 55 -202 200 -103 51 -221 109 -262 129
-205 96 -271 127 -276 127 -3 0 -39 16 -80 35 -41 19 -77 35 -80 35 -3 0 -34
13 -69 29 -81 38 -585 237 -735 291 -63 23 -124 45 -135 50 -11 5 -90 32 -175
60 -85 29 -164 56 -175 60 -32 13 -483 156 -523 165 -9 3 -102 30 -207 60
-170 50 -313 90 -355 100 -73 17 -117 29 -125 36 -6 4 -20 8 -30 8 -11 -1
-101 20 -200 46 -169 43 -499 122 -555 132 -14 2 -41 8 -60 13 -39 10 -80 19
-125 26 -16 3 -36 7 -44 10 -12 4 -116 26 -181 38 -14 2 -72 14 -130 26 -58
12 -118 24 -135 26 -16 3 -37 7 -45 10 -8 3 -26 8 -40 10 -14 2 -41 7 -60 10
-19 4 -42 8 -50 9 -8 1 -28 5 -45 8 -16 4 -48 10 -70 13 -49 8 -70 12 -70 14
0 1 -11 3 -25 5 -26 2 -77 11 -119 19 -12 3 -42 8 -65 10 -43 6 -99 14 -151
22 -80 12 -329 26 -338 19z"/>
<path d="M14050 8301 c-85 -46 -144 -72 -259 -111 -67 -23 -128 -43 -134 -44
-7 -2 -25 -8 -40 -14 -16 -7 -33 -12 -38 -12 -5 0 -56 -14 -112 -31 -56 -17
-109 -32 -117 -34 -8 -2 -60 -15 -115 -30 -55 -14 -115 -28 -134 -31 -18 -3
-41 -7 -51 -9 -256 -49 -2301 -56 -3155 -10 -60 3 -146 8 -190 10 -44 2 -111
7 -150 10 -38 3 -99 7 -135 10 -61 4 -119 7 -315 20 -44 3 -109 7 -145 9 -112
7 -333 18 -385 21 -78 4 -412 17 -487 19 -37 1 -70 5 -73 8 -3 3 -21 2 -40 -2
-19 -4 -36 -6 -39 -3 -21 21 -1414 20 -1866 -2 -328 -15 -435 -21 -540 -30
-87 -7 -147 -12 -245 -20 -38 -3 -95 -8 -125 -11 -30 -3 -71 -7 -90 -9 -91 -8
-177 -18 -195 -21 -11 -2 -42 -6 -70 -9 -27 -3 -63 -7 -80 -9 -16 -2 -59 -7
-95 -11 -36 -4 -74 -9 -85 -11 -20 -4 -78 -13 -125 -19 -33 -4 -87 -13 -195
-32 -49 -8 -101 -17 -115 -19 -64 -9 -97 -15 -265 -49 -99 -20 -245 -52 -325
-71 -80 -20 -149 -37 -155 -38 -5 -1 -16 -5 -22 -9 -7 -5 -13 -6 -13 -3 0 3
-11 1 -25 -4 -14 -5 -37 -12 -51 -14 -14 -3 -47 -12 -72 -19 -26 -8 -92 -29
-147 -45 -247 -74 -322 -98 -505 -159 -224 -74 -352 -119 -395 -138 -16 -7
-41 -16 -55 -20 -57 -17 -343 -141 -445 -192 -114 -57 -161 -88 -148 -96 9 -5
16 -4 93 12 30 6 64 13 75 15 11 3 43 10 70 16 28 6 65 13 84 16 18 2 37 7 42
10 9 5 38 12 84 19 11 2 65 13 120 25 55 12 107 23 115 24 43 7 119 22 123 26
1 1 11 3 22 5 11 1 34 6 50 9 17 4 39 8 50 10 11 2 34 6 50 9 17 4 44 9 60 12
17 3 41 7 55 10 14 3 40 8 59 11 18 3 43 8 55 10 11 3 30 6 41 8 11 2 34 6 50
10 17 4 46 8 65 11 19 2 58 8 86 14 28 5 73 12 100 16 27 3 56 7 64 10 8 2 38
6 65 10 28 3 64 8 80 11 17 3 41 7 55 9 14 2 50 7 80 10 30 3 73 8 95 11 104
13 168 20 265 30 25 2 65 6 90 9 25 3 70 7 100 10 30 3 80 7 110 10 205 20
506 33 900 40 146 2 265 5 265 6 0 4 1569 3 1608 -2 26 -3 47 -1 47 3 0 5 4 7
10 3 5 -3 132 -8 282 -10 381 -7 736 -18 923 -30 50 -3 135 -7 190 -10 55 -3
143 -7 195 -10 115 -6 327 -15 510 -20 74 -2 135 -5 135 -5 0 -1 270 -9 500
-15 934 -25 1874 -25 2017 0 13 2 52 7 88 10 36 3 79 7 95 9 17 2 57 6 90 10
33 4 87 11 120 17 33 5 78 12 100 14 22 3 51 7 65 10 14 3 48 8 75 11 28 4 57
10 66 15 9 4 19 6 21 3 6 -6 317 58 473 97 66 17 127 32 135 34 40 8 358 118
408 141 32 15 62 27 67 28 18 4 188 92 270 141 79 47 275 174 285 185 3 3 25
21 50 40 75 59 118 104 125 131 6 23 3 27 -26 33 -42 8 -39 9 -79 -13z"/>
<path d="M14078 7836 c-104 -67 -209 -133 -235 -146 -27 -12 -56 -30 -65 -38
-10 -8 -18 -12 -18 -8 0 4 -12 -1 -27 -11 -26 -17 -101 -56 -113 -57 -3 -1 -9
-4 -15 -8 -22 -13 -290 -121 -330 -132 -5 -2 -17 -6 -25 -9 -21 -8 -212 -68
-230 -72 -8 -2 -69 -17 -135 -33 -108 -27 -206 -49 -260 -58 -11 -2 -67 -13
-125 -23 -107 -21 -191 -34 -222 -35 -10 0 -18 -3 -18 -6 0 -3 -12 -5 -27 -6
-27 -1 -107 -9 -188 -20 -51 -6 -105 -12 -180 -19 -33 -3 -80 -7 -105 -10 -96
-9 -189 -16 -275 -20 -49 -2 -90 -5 -90 -5 0 -2 -95 -7 -305 -16 -107 -5 -496
-8 -865 -8 -595 0 -783 3 -1250 19 -176 7 -539 21 -760 31 -66 3 -169 7 -230
9 -60 2 -166 7 -235 10 -69 2 -192 7 -275 10 -287 10 -451 16 -600 21 -82 2
-169 5 -192 7 -22 1 -39 -1 -36 -5 2 -5 -6 -4 -19 1 -20 7 -914 7 -1020 0 -48
-3 -35 -24 20 -32 20 -3 48 -8 62 -11 13 -3 42 -8 65 -11 22 -3 51 -8 65 -10
27 -5 44 -8 155 -25 82 -13 103 -16 168 -25 27 -4 56 -8 65 -10 10 -1 44 -6
77 -10 32 -3 62 -8 65 -10 3 -2 28 -6 55 -9 28 -3 61 -8 75 -10 24 -5 218 -32
290 -42 19 -2 46 -6 60 -9 14 -2 48 -7 75 -11 28 -3 61 -7 75 -10 14 -2 45 -7
70 -10 25 -3 56 -7 70 -9 14 -2 48 -7 75 -11 28 -3 58 -8 69 -10 10 -2 44 -6
75 -9 31 -4 63 -8 71 -10 8 -2 42 -7 75 -11 33 -3 69 -8 80 -10 11 -2 45 -7
75 -9 30 -3 62 -8 70 -10 14 -3 86 -13 150 -20 55 -6 146 -17 163 -21 10 -2
48 -6 85 -10 36 -3 75 -8 87 -11 11 -2 43 -6 70 -8 28 -2 68 -6 90 -9 64 -8
126 -15 175 -21 25 -2 65 -7 90 -10 25 -3 68 -7 95 -10 96 -8 180 -16 205 -21
14 -2 61 -7 105 -9 44 -3 94 -7 110 -10 17 -2 71 -6 120 -10 50 -3 115 -8 145
-11 441 -40 1334 -49 1910 -19 324 17 521 32 670 51 25 4 65 8 90 10 25 2 56
6 70 9 14 3 39 7 55 10 17 3 44 8 60 12 17 3 39 7 50 9 19 3 183 40 215 49 8
2 49 13 90 25 41 11 84 22 95 25 77 18 362 119 453 161 29 13 55 24 58 24 9 0
277 136 334 170 52 31 153 96 175 112 80 61 182 148 230 194 133 130 356 436
317 434 -4 -1 -91 -56 -194 -124z"/>
</g>
</svg>
